#!OML:ASF G:\JayActor3\Patient Classification 1\Patient 1\Session 6\male.ASF
:FULLY-SPECIFIED
:DEGREES
2275
root 1.12451 16.3279 0.00629069 170.905 -63.8285 -174.398
lowerback -2.02706 2.87684 2.71943
upperback -2.60435 3.76471 1.14656
thorax -1.43934 1.82196 -0.312509
lowerneck 10.4643 6.84721 1.6774
upperneck -20.515 12.1785 14.546
head -9.06161 3.81319 3.35226
rclavicle -2.63265e-014 -1.2101e-014
rhumerus -2.26796 46.8097 -90.3354
rradius 107.311
rwrist 10.2866
rhand -53.9451 8.7958
rfingers 7.12502
rthumb -26.3708 -19.3904
lclavicle -2.63265e-014 -1.2101e-014
lhumerus -62.5829 -15.5932 98.6236
lradius 58.7224
lwrist 17.1079
lhand -43.0777 1.16512
lfingers 7.12502
lthumb -15.9332 30.5297
rfemur -9.42678 3.65041 24.8921
rtibia 38.7321
rfoot -26.2133 -12.7115
rtoes 3.59231
lfemur 1.54029 11.2848 -18.3965
ltibia 24.5251
lfoot -26.6456 25.9056
ltoes 6.13074
2276
root 1.12866 16.3283 -0.0070955 170.983 -63.4306 -174.438
lowerback -2.0525 2.84763 2.69478
upperback -2.61216 3.72463 1.15153
thorax -1.43595 1.80211 -0.29313
lowerneck 10.4989 6.81122 1.67163
upperneck -20.4976 12.1174 14.5065
head -9.05446 3.78854 3.34572
rclavicle -3.2464e-014 1.60767e-014
rhumerus -2.26875 46.8213 -90.3346
rradius 107.322
rwrist 10.2994
rhand -53.9478 8.81148
rfingers 7.12502
rthumb -26.3733 -19.3744
lclavicle -3.2464e-014 1.60767e-014
lhumerus -62.5914 -15.5956 98.6321
lradius 58.7214
lwrist 17.092
lhand -43.0576 1.20642
lfingers 7.12502
lthumb -15.9138 30.5726
rfemur -9.49184 3.8108 24.9709
rtibia 38.7332
rfoot -26.0991 -12.544
rtoes 3.60912
lfemur 1.56111 11.2572 -18.3751
ltibia 24.5165
lfoot -26.8998 26.1769
ltoes 6.41285
2277
root 1.13277 16.3286 -0.020087 171.036 -63.0317 -174.449
lowerback -2.07448 2.82081 2.68655
upperback -2.62225 3.68767 1.15863
thorax -1.43587 1.78345 -0.280903
lowerneck 10.5318 6.77367 1.66754
upperneck -20.4844 12.0546 14.4665
head -9.0482 3.76274 3.33907
rclavicle 2.7805e-014 -1.28713e-014
rhumerus -2.27517 46.8379 -90.3367
rradius 107.336
rwrist 10.3436
rhand -53.9836 8.63979
rfingers 7.12502
rthumb -26.4076 -19.5409
lclavicle 2.7805e-014 -1.28713e-014
lhumerus -62.6022 -15.6072 98.6461
lradius 58.72
lwrist 17.0762
lhand -43.0473 1.23212
lfingers 7.12502
lthumb -15.9039 30.5991
rfemur -9.55386 3.96535 25.0604
rtibia 38.727
rfoot -25.9821 -12.37
rtoes 3.64387
lfemur 1.57736 11.2301 -18.342
ltibia 24.5167
lfoot -27.1699 26.4367
ltoes 6.71393
2278
root 1.13659 16.3287 -0.0325916 171.081 -62.6383 -174.455
lowerback -2.09161 2.79364 2.6855
upperback -2.63323 3.65036 1.16487
thorax -1.43891 1.76443 -0.27383
lowerneck 10.5591 6.73582 1.66137
upperneck -20.4685 11.991 14.4311
head -9.04038 3.73672 3.3346
rclavicle 3.55887e-014 -1.06847e-015
rhumerus -2.28894 46.8656 -90.3432
rradius 107.356
rwrist 10.414
rhand -54.0468 8.25418
rfingers 7.12502
rthumb -26.4681 -19.9174
lclavicle 3.55887e-014 -1.06847e-015
lhumerus -62.6178 -15.6287 98.6673
lradius 58.7184
lwrist 17.0646
lhand -43.0568 1.23811
lfingers 7.12502
lthumb -15.9131 30.6043
rfemur -9.60838 4.10365 25.1457
rtibia 38.7154
rfoot -25.8608 -12.188
rtoes 3.67038
lfemur 1.59469 11.206 -18.3083
ltibia 24.5233
lfoot -27.4441 26.6882
ltoes 7.00732
2279
root 1.14015 16.3287 -0.0446035 171.121 -62.2537 -174.458
lowerback -2.10045 2.76483 2.6902
upperback -2.64932 3.61116 1.16945
thorax -1.45143 1.74418 -0.272246
lowerneck 10.6029 6.69673 1.66099
upperneck -20.4626 11.9287 14.3914
head -9.03872 3.70979 3.32721
rclavicle 4.78139e-014 1.8313e-014
rhumerus -2.31962 46.903 -90.3657
rradius 107.375
rwrist 10.5071
rhand -54.1235 7.72459
rfingers 7.12502
rthumb -26.5416 -20.436
lclavicle 4.78139e-014 1.8313e-014
lhumerus -62.6456 -15.6573 98.6956
lradius 58.7198
lwrist 17.0637
lhand -43.0889 1.21904
lfingers 7.12502
lthumb -15.944 30.5828
rfemur -9.65664 4.22399 25.2255
rtibia 38.7002
rfoot -25.7394 -11.9909
rtoes 3.70586
lfemur 1.61156 11.1818 -18.276
ltibia 24.534
lfoot -27.7132 26.9406
ltoes 7.27358
2280
root 1.14366 16.3286 -0.056273 171.16 -61.878 -174.459
lowerback -2.10402 2.73351 2.69546
upperback -2.67 3.56884 1.17472
thorax -1.47171 1.72218 -0.270721
lowerneck 10.6613 6.6588 1.66133
upperneck -20.4666 11.8705 14.3496
head -9.04341 3.68352 3.31823
rclavicle -7.86069e-014 -1.66482e-015
rhumerus -2.364 46.9503 -90.4006
rradius 107.394
rwrist 10.6074
rhand -54.2013 7.12579
rfingers 7.12502
rthumb -26.616 -21.0235
lclavicle -7.86069e-014 -1.66482e-015
lhumerus -62.6812 -15.6844 98.7286
lradius 58.7244
lwrist 17.0712
lhand -43.1464 1.20333
lfingers 7.12502
lthumb -15.9993 30.5626
rfemur -9.70288 4.33243 25.302
rtibia 38.6831
rfoot -25.6193 -11.7881
rtoes 3.74216
lfemur 1.62532 11.1536 -18.2451
ltibia 24.5461
lfoot -27.9789 27.1934
ltoes 7.5195
